HIERARCHY
ROOT Hips
{
	OFFSET 0.00 0.00 0.00
	CHANNELS 6 Xposition Yposition Zposition Xrotation Yrotation Zrotation
	JOINT Spine
	{
		OFFSET 0.00000 1.15266 1.72900
		CHANNELS 3 Xrotation Yrotation Zrotation
		JOINT Spine1
		{
			OFFSET 0.00000 0.40032 2.27031
			CHANNELS 3 Xrotation Yrotation Zrotation
			JOINT Spine2
			{
				OFFSET 0.00000 0.20092 2.29656
				CHANNELS 3 Xrotation Yrotation Zrotation
				JOINT Spine3
				{
					OFFSET 0.00000 0.00000 2.30533
					CHANNELS 3 Xrotation Yrotation Zrotation
					JOINT Neck
					{
						OFFSET 0.00000 -0.86449 6.05149
						CHANNELS 3 Xrotation Yrotation Zrotation
						JOINT Head
						{
							OFFSET 0.00000 -0.55043 3.12167
							CHANNELS 3 Xrotation Yrotation Zrotation
							End Site
							{
								OFFSET 0.00000 0.00000 3.73175
							}
						}
					}
					JOINT RightShoulder
					{
						OFFSET -0.78828 -1.31380 4.25672
						CHANNELS 3 Xrotation Yrotation Zrotation
						JOINT RightArm
						{
							OFFSET -3.91513 0.00000 0.00000
							CHANNELS 3 Xrotation Yrotation Zrotation
							JOINT RightForeArm
							{
								OFFSET -6.91491 0.00000 0.00000
								CHANNELS 3 Xrotation Yrotation Zrotation
								JOINT RightHand
								{
									OFFSET -6.09622 0.00000 0.00000
									CHANNELS 3 Xrotation Yrotation Zrotation
									JOINT RightHandEnd
									{
										OFFSET -1.74995 0.00000 0.00000
										CHANNELS 3 Xrotation Yrotation Zrotation
										End Site
										{
											OFFSET -1.74995 0.00000 0.00000
										}
									}
									JOINT RightHandThumb1
									{
										OFFSET -0.69998 -1.16663 -0.46665
										CHANNELS 3 Yrotation Xrotation Zrotation
										End Site
										{
											OFFSET -1.69032 -0.45292 0.00000
										}
									}
								}
							}
						}
					}
					JOINT LeftShoulder
					{
						OFFSET 0.78828 -1.31380 4.25672
						CHANNELS 3 Xrotation Yrotation Zrotation
						JOINT LeftArm
						{
							OFFSET 3.91513 0.00000 0.00000
							CHANNELS 3 Xrotation Yrotation Zrotation
							JOINT LeftForeArm
							{
								OFFSET 6.91491 0.00000 0.00000
								CHANNELS 3 Xrotation Yrotation Zrotation
								JOINT LeftHand
								{
									OFFSET 6.09622 0.00000 0.00000
									CHANNELS 3 Xrotation Yrotation Zrotation
									JOINT LeftHandEnd
									{
										OFFSET 1.74995 0.00000 0.00000
										CHANNELS 3 Xrotation Yrotation Zrotation
										End Site
										{
											OFFSET 1.74995 0.00000 0.00000
										}
									}
									JOINT LeftHandThumb1
									{
										OFFSET 0.69998 -1.16663 -0.46665
										CHANNELS 3 Yrotation Xrotation Zrotation
										End Site
										{
											OFFSET 1.69032 -0.45292 0.00000
										}
									}
								}
							}
						}
					}
				}
			}
		}
	}
	JOINT RightUpLeg
	{
		OFFSET -2.33857 0.00000 -0.68318
		CHANNELS 3 Xrotation Yrotation Zrotation
		JOINT RightLeg
		{
			OFFSET 0.00000 0.00000 -10.74496
			CHANNELS 3 Xrotation Yrotation Zrotation
			JOINT RightFoot
			{
				OFFSET 0.00000 0.00000 -10.93085
				CHANNELS 3 Xrotation Yrotation Zrotation
				JOINT RightToeBase
				{
					OFFSET 0.00000 -4.08727 -1.48765
					CHANNELS 3 Xrotation Yrotation Zrotation
					End Site
					{
						OFFSET 0.00000 -1.89187 -0.00000
					}
				}
			}
		}
	}
	JOINT LeftUpLeg
	{
		OFFSET 2.33857 0.00000 -0.68318
		CHANNELS 3 Xrotation Yrotation Zrotation
		JOINT LeftLeg
		{
			OFFSET 0.00000 0.00000 -10.74496
			CHANNELS 3 Xrotation Yrotation Zrotation
			JOINT LeftFoot
			{
				OFFSET 0.00000 0.00000 -10.93085
				CHANNELS 3 Xrotation Yrotation Zrotation
				JOINT LeftToeBase
				{
					OFFSET 0.00000 -4.08727 -1.48765
					CHANNELS 3 Xrotation Yrotation Zrotation
					End Site
					{
						OFFSET 0.00000 -1.89187 -0.00000
					}
				}
			}
		}
	}
}
MOTION
Frames: 7
Frame Time: 0.016683
 -5.1595 6.9675 24.6642 -7.6867 2.0861 -178.9243 -0.0822 2.3853 0.1639 -0.5363 2.7024 0.7846 4.6888 3.8050 7.2570 0.0015 0.4230 1.5393 -8.6021 5.4232 -5.2866 3.4880 -5.4094 -7.4283 -3.7899 5.8150 2.8285 -69.7887 -38.5488 -22.7110 -0.0000 0.0001 83.7494 -90.1028 -29.7828 9.7259 -0.0000 0.0000 0.0000 0.0000 -0.0000 0.0000 -5.9191 -15.4252 -6.7383 -87.6066 26.2091 14.4096 -0.0000 -0.0001 -78.5983 -48.0299 13.4897 -12.0860 0.0000 -0.0000 0.0000 0.0000 0.0000 0.0000 -5.5581 11.3090 -14.3700 24.1325 0.0000 0.0000 -14.2631 -9.1645 -19.9255 4.9496 0.0000 0.0000 -13.8915 -15.5509 4.4484 15.0986 0.0000 0.0000 4.2912 13.8469 -26.9961 -5.9749 0.0000 -0.0000
 -5.0689 7.1083 24.6657 -7.8016 1.1076 -176.7864 -1.0687 2.2104 0.1812 -0.9882 2.6297 0.7259 5.3706 3.8336 6.0525 0.3038 0.4162 1.1816 -7.1498 3.7242 -4.1220 9.3772 -6.5906 -5.5878 -3.3496 2.1877 2.7224 -61.0531 -39.6770 -19.6958 -0.0000 0.0001 80.0726 -95.1587 -30.1523 3.9454 -0.0000 0.0000 0.0000 0.0000 -0.0000 -0.0000 -5.2468 -10.3734 -4.9939 -78.9730 31.6471 10.8622 -0.0000 -0.0001 -79.5894 -52.0780 21.7869 -13.5971 -0.0000 0.0000 0.0000 -0.0000 0.0000 0.0000 -3.7222 10.6287 -11.2310 22.6615 0.0000 0.0000 -13.5943 -9.8492 -17.4777 4.6802 0.0000 0.0000 -14.3275 -15.4669 5.4610 16.2645 0.0000 0.0000 2.2538 14.1338 -22.1749 -5.5301 0.0000 -0.0000
 -5.0105 7.2541 24.6005 -7.3969 0.4852 -174.7159 -1.6833 2.3811 0.1890 -1.3613 2.4140 0.6611 6.1767 3.9132 4.9759 0.5724 0.3418 0.8547 -5.7276 1.7758 -3.1605 13.7649 -7.4544 -4.1092 -2.6298 -1.5208 2.6999 -49.4990 -39.4912 -14.0232 -0.0000 0.0001 76.7662 -88.3818 -26.0068 2.0123 0.0000 0.0000 0.0000 0.0000 0.0000 0.0000 -4.1771 -5.1365 -2.9284 -67.4376 36.3924 4.5233 -0.0000 -0.0001 -79.0280 -57.1227 26.1488 -11.7432 0.0000 -0.0000 -0.0000 0.0000 0.0000 -0.0000 -1.7369 10.7238 -8.0165 21.8951 0.0000 0.0000 -13.3180 -10.9899 -14.4542 3.9198 0.0000 0.0000 -15.3464 -15.4890 8.9853 19.7994 0.0000 0.0000 -0.2799 13.8875 -18.9644 -4.7143 0.0000 -0.0000
 -4.9669 7.3983 24.4475 -6.4768 -0.1984 -172.5942 -1.7479 2.5002 0.1965 -1.5300 2.1037 0.5877 6.8217 3.9170 4.0575 0.7173 0.1702 0.5879 -4.4246 -0.3697 -2.6059 16.0732 -7.8651 -3.3210 -1.4566 -5.0546 2.6868 -36.6542 -37.6812 -6.9905 -0.0000 0.0001 74.3665 -70.0800 -18.4834 2.7860 0.0000 -0.0000 0.0000 0.0000 -0.0000 0.0000 -2.7724 -0.2513 -1.1510 -53.4759 39.1716 -4.1996 -0.0000 -0.0001 -77.2226 -59.8473 24.6936 -8.0512 -0.0000 -0.0000 -0.0000 -0.0000 0.0000 0.0000 0.2295 10.8985 -4.8592 22.0833 0.0000 0.0000 -13.5452 -12.3909 -11.1835 2.5937 0.0000 0.0000 -17.0861 -16.3579 12.7819 25.5790 0.0000 0.0000 -3.3524 13.1972 -16.8896 -3.4132 0.0000 -0.0000
 -4.9347 7.5413 24.2002 -5.0083 -1.1429 -170.4948 -1.1878 2.2419 0.2049 -1.4050 1.7889 0.5054 7.1655 3.7618 3.3544 0.7234 -0.1047 0.4217 -3.5789 -2.4766 -2.5774 16.1975 -7.7722 -3.3482 0.0670 -8.0608 2.6026 -24.1876 -34.4952 -0.2014 -0.0000 0.0001 72.6774 -46.4831 -10.9534 1.2547 -0.0000 -0.0000 -0.0000 0.0000 -0.0000 0.0000 -1.2363 3.8297 -0.0813 -38.3846 39.2896 -13.8394 -0.0000 -0.0001 -74.9393 -56.8940 16.7763 -4.1582 0.0000 -0.0000 0.0000 -0.0000 0.0000 -0.0000 1.9595 10.7142 -1.8723 23.5808 0.0000 0.0000 -14.3507 -13.8534 -7.7357 0.7761 0.0000 0.0000 -19.1956 -18.1233 14.6476 32.5682 0.0000 0.0000 -6.7475 12.3261 -15.0829 -1.9403 0.0000 -0.0000
 -4.9275 7.6810 23.8830 -3.1386 -2.0413 -168.6419 -0.1538 1.7385 0.2104 -1.0568 1.5494 0.4446 7.3855 3.4422 2.9055 0.6507 -0.4474 0.3897 -3.6256 -4.2164 -3.1325 14.5272 -7.1917 -4.0251 1.6676 -10.4225 2.3979 -13.7536 -30.4271 5.1526 -0.0000 0.0001 71.5995 -20.4369 -9.5664 -4.0138 0.0000 -0.0000 0.0000 -0.0000 0.0000 0.0000 0.2170 7.0122 0.1572 -23.8395 36.7495 -22.6935 -0.0000 -0.0001 -72.4195 -48.3208 6.6561 0.6870 0.0000 -0.0000 0.0000 0.0000 0.0000 0.0000 3.2124 10.4423 0.4630 26.5229 0.0000 0.0000 -15.5645 -15.2606 -3.8401 -1.3376 0.0000 -0.0000 -21.1307 -20.0413 14.4006 39.3571 0.0000 0.0000 -9.9912 11.4754 -13.6222 -0.7043 0.0000 -0.0000
 -4.9545 7.8101 23.5410 -1.2493 -2.5733 -167.3503 0.9925 1.3011 0.2104 -0.6710 1.3471 0.3882 7.7806 3.0418 2.7545 0.5894 -0.8358 0.4834 -4.7463 -5.2914 -4.1768 11.7334 -6.2241 -5.0538 3.0834 -12.2360 2.1528 -6.4706 -26.1582 8.7403 -0.0000 0.0001 71.6234 7.0512 -18.1879 -8.2776 -0.0000 -0.0000 0.0000 -0.0000 -0.0000 0.0000 1.5707 9.5505 -0.2331 -11.3360 32.0560 -29.4038 -0.0000 -0.0001 -69.6922 -33.3741 1.5951 7.6427 -0.0000 -0.0000 0.0000 0.0000 -0.0000 -0.0000 3.7628 10.5498 1.7702 30.5678 0.0000 0.0000 -16.7787 -16.5306 0.5493 -3.5356 0.0000 -0.0000 -22.5175 -21.5044 13.1174 45.0026 0.0000 0.0000 -12.8407 10.7780 -12.8662 0.1570 0.0000 0.0000
